<?xml version="1.0" encoding="UTF-8"?>
<svg id="Capa_1" data-name="Capa 1" xmlns="http://www.w3.org/2000/svg" viewBox="0 0 2267.717 2111.63">
  <defs>
    <style>
      .cls-1 {
        fill: #2d2a26;
      }

      .cls-2 {
        fill: #00953b;
      }
    </style>
  </defs>
  <path class="cls-1" d="M148.168,1817.359l.718-2.154c-8.607-2.144-18.286-3.944-30.109-3.944-14.705,0-23.302,4.308-23.302,14.341,0,8.253,6.443,13.987,18.276,13.987,20.44,0,30.482-10.397,34.417-22.23M38.111,1829.192c0-24.374,17.921-53.42,69.551-53.42,16.485,0,31.19,2.154,44.096,6.453v-.718c0-19.004-11.833-30.473-33.699-30.473-15.423,0-29.754,1.79-47.322,15.059l-27.61-35.135c26.174-21.148,50.912-28.672,84.247-28.672,47.322,0,83.175,25.082,83.175,86.755v89.617h-46.958c-3.954-8.961-5.026-16.485-5.38-22.584-11.833,15.059-30.118,26.528-57.011,26.528-48.384,0-63.089-29.036-63.089-53.41"/>
  <path class="cls-1" d="M356.815,1764.299c0-11.833-7.161-21.512-23.302-21.512-18.276,0-25.092,10.043-25.092,21.512,0,11.115,6.453,22.23,25.092,22.23,16.859,0,23.302-10.043,23.302-22.23M340.684,1915.589c18.285-1.072,26.174-3.226,26.174-11.115,0-7.525-4.662-10.397-29.036-10.397h-31.908c-32.273,0-55.575-12.905-55.575-44.45,0-15.423,6.817-29.046,21.512-38.725-15.767-10.397-24.01-26.174-24.01-45.532,0-36.561,28.673-63.089,86.755-63.089,26.164,0,46.24,7.17,60.227,18.285,3.944-6.098,5.734-14.705,5.734-25.102h38.715v9.325c0,18.286-7.879,34.417-24.738,44.46,1.8,5.017,2.518,10.751,2.518,16.122,0,36.935-28.328,60.237-82.457,60.237-28.328,0-35.499,2.154-35.499,9.679,0,7.879,7.171,9.315,17.931,9.315h37.643c40.869,0,67.752,15.777,67.752,51.276,0,36.207-28.318,55.565-81.739,56.283v-36.571Z"/>
  <path class="cls-1" d="M465.807,1706.221h52.338c2.154,4.662,4.662,13.623,5.735,22.584,11.479-16.485,27.61-26.528,49.84-26.528,17.203,0,26.528,4.662,33.699,9.679l-19.367,49.112c-6.088-3.58-11.105-4.652-20.43-4.652-19.712,0-38.725,11.469-38.725,45.532v76.712h-63.089v-172.438Z"/>
  <path class="cls-1" d="M745.796,1791.906c0-16.849-7.171-36.207-30.827-36.207-24.738,0-32.273,19.712-32.273,36.207,0,17.204,7.535,37.289,31.554,37.289,24.374,0,31.545-19.721,31.545-37.289M670.51,1657.82l88.555-43.732,19.358,37.279-90.699,38.725-17.213-32.272ZM619.608,1791.906c0-46.25,36.561-89.627,94.998-89.627,59.873,0,94.289,41.223,94.289,89.627,0,46.604-36.207,90.699-94.289,90.699-60.227,0-94.998-41.587-94.998-90.699"/>
  <path class="cls-1" d="M977.394,1792.622c0-28.682-16.131-36.925-31.545-36.925-19.721,0-34.427,12.905-34.427,32.981v3.944c0,27.6,17.932,36.571,34.427,36.571,13.977,0,31.545-7.889,31.545-36.571M848.334,1706.221h52.338c2.154,4.662,4.308,12.551,5.38,20.794,15.413-15.413,35.135-24.738,57.001-24.738,49.112,0,77.44,38.715,77.44,90.345,0,52.702-30.118,89.981-79.594,89.981-20.43,0-36.561-6.453-49.476-17.922v83.529h-63.089v-241.989Z"/>
  <path class="cls-1" d="M1096.421,1800.509v-42.659h-32.981v-51.63h32.981v-44.814h63.099v44.814h64.525v51.63h-64.525v43.732c0,19.722,10.033,27.61,25.456,27.61,8.961,0,17.567-3.226,25.81-8.97l25.81,38.371c-14.341,14.341-36.207,24.02-63.453,24.02-49.83,0-76.722-24.02-76.722-82.102"/>
  <path class="cls-1" d="M1264.555,1706.224h63.089v172.438h-63.089v-172.438ZM1261.329,1659.257c0-16.849,12.905-30.472,34.417-30.472,21.876,0,34.771,13.623,34.771,30.472,0,17.931-13.259,30.836-35.135,30.836-21.502,0-34.053-12.905-34.053-30.836"/>
  <path class="cls-1" d="M1374.975,1706.221h52.348c2.144,4.308,4.298,12.187,5.38,20.43,13.259-15.413,31.18-24.374,54.118-24.374,25.102,0,43.033,9.679,53.784,27.964,13.269-18.639,31.908-27.964,60.227-27.964,43.024,0,65.607,28.682,65.607,81.03v95.352h-63.099v-97.152c0-17.567-7.525-25.81-21.512-25.81-18.64,0-29.391,13.269-29.391,46.25v76.712h-63.099v-97.152c0-17.567-7.525-25.81-21.866-25.81-18.286,0-29.4,13.269-29.4,46.25v76.712h-63.099v-172.438Z"/>
  <path class="cls-1" d="M1709.464,1801.944v-95.726h63.089v96.798c0,17.567,7.535,26.174,21.876,26.174,18.286,0,30.118-13.623,30.118-46.25v-76.722h63.089v172.448h-51.974c-2.508-4.662-4.299-12.551-5.735-20.794-13.279,15.413-31.554,24.738-54.502,24.738-43.014,0-65.961-28.682-65.961-80.666"/>
  <path class="cls-1" d="M1934.244,1706.221h52.348c2.144,4.308,4.298,12.187,5.38,20.43,13.259-15.413,31.18-24.374,54.118-24.374,25.102,0,43.033,9.679,53.784,27.964,13.269-18.639,31.908-27.964,60.227-27.964,43.024,0,65.607,28.682,65.607,81.03v95.352h-63.099v-97.152c0-17.567-7.525-25.81-21.512-25.81-18.64,0-29.39,13.269-29.39,46.25v76.712h-63.099v-97.152c0-17.567-7.524-25.81-21.865-25.81-18.286,0-29.4,13.269-29.4,46.25v76.712h-63.099v-172.438Z"/>
  <path class="cls-2" d="M1376.868,867.054l-146.923-146.913,147.09-147.09,146.913,146.913-147.08,147.09ZM1136.511,1107.41l-146.923-146.913,147.07-147.07,146.923,146.913-147.07,147.07ZM749.409,720.318l147.07-147.07,146.893,146.894-147.07,147.07-146.893-146.894ZM1136.856,332.872l146.893,146.893-147.09,147.09-146.894-146.903,147.09-147.08ZM1810.269,1006.285c17.066-48.177,29.134-98.716,35.558-151.015l-135.297-135.306,120.896-120.906c-11.528-48.059-27.895-94.24-48.571-137.991l-165.612,165.612-146.923-146.913,194.746-194.736c-29.656-32.617-62.292-62.45-97.447-89.135l-190.586,190.585-146.893-146.893,147.041-147.051c-47.991-17.223-98.342-29.499-150.454-36.118l-89.873,89.883-90.119-90.119c-52.23,6.482-102.709,18.62-150.828,35.755l147.651,147.651-147.08,147.08-191.619-191.618c-35.213,26.617-67.899,56.41-97.614,88.968l195.946,195.937-147.07,147.07-167.175-167.166c-20.745,43.673-37.171,89.784-48.797,137.775l122.686,122.686-137.047,137.047c6.561,52.171,18.767,102.581,35.921,150.641l194.412-194.402,146.893,146.893-238.251,238.252c26.627,35.213,56.41,67.909,88.958,97.614l242.58-242.58,174.946,174.946v254.452h131.933v-255.868l173.687-173.687,241.793,241.793c32.499-29.764,62.233-62.509,88.791-97.781l-237.297-237.297,147.08-147.09,193.035,193.035Z"/>
  <g>
    <path class="cls-2" d="M45.794,2042.732l7.454-8.443c6.359,6.359,13.414,8.933,21.262,8.933,8.246,0,10.729-2.68,10.729-6.253,0-4.275-3.376-6.263-12.718-8.05-14.701-2.488-23.15-7.252-23.15-19.173,0-11.335,10.432-18.385,24.144-18.385,9.937,0,18.183,2.978,24.941,10.729l-7.454,8.347c-5.763-5.37-10.629-6.954-16.988-6.954-7.752,0-10.931,2.286-10.931,5.965,0,4.563,4.174,5.658,13.213,7.55,13.712,2.776,22.756,7.348,22.756,19.864,0,12.324-9.735,18.587-24.84,18.587-11.229,0-21.464-4.073-28.418-12.718Z"/>
    <path class="cls-2" d="M140.146,1992.35h13.909v24.052h28.418v-24.052h13.909v62.004h-13.909v-25.042h-28.418v25.042h-13.909v-62.004Z"/>
    <path class="cls-2" d="M257.935,1992.35h15.897l24.048,62.004h-14.308l-5.365-14.802h-25.239l-5.264,14.802h-13.914l24.144-62.004ZM274.432,2027.93l-8.847-23.851-8.842,23.851h17.689Z"/>
    <path class="cls-2" d="M335.294,1992.35h24.245c16.296,0,25.037,8.751,25.037,21.958,0,13.419-10.633,21.363-24.542,21.363-3.376,0-7.55-.394-11.128-1.085v19.768h-13.611v-62.004ZM370.666,2014.011c0-6.455-4.471-9.731-11.825-9.731h-9.937v18.779c3.179.596,6.359.788,9.937.788,7.252,0,11.825-3.573,11.825-9.836Z"/>
    <path class="cls-2" d="M425.37,1992.35h13.909v62.004h-13.909v-62.004Z"/>
    <path class="cls-2" d="M484.363,1992.35h13.712l29.11,41.141v-41.141h13.318v62.004h-13.712l-29.216-40.834v40.834h-13.213v-62.004Z"/>
    <path class="cls-2" d="M581.985,2023.252c0-16.291,11.426-31.891,32.39-31.891,10.533,0,20.071,4.073,25.037,13.515l-9.241,6.858c-3.079-4.87-8.146-8.155-15.897-8.155-12.42,0-18.28,8.751-18.28,20.076,0,11.421,6.061,19.768,17.881,19.768,7.949,0,14.408-4.073,15.403-11.825h-14.308v-10.729h27.621v4.668c0,18.385-11.229,29.912-29.609,29.912-19.97,0-30.997-13.217-30.997-32.198Z"/>
    <path class="cls-2" d="M735.623,1992.35h24.245c16.296,0,25.037,8.751,25.037,21.958,0,13.419-10.629,21.363-24.542,21.363-3.376,0-7.55-.394-11.128-1.085v19.768h-13.611v-62.004ZM770.995,2014.011c0-6.455-4.471-9.731-11.825-9.731h-9.937v18.779c3.179.596,6.359.788,9.937.788,7.252,0,11.825-3.573,11.825-9.836Z"/>
    <path class="cls-2" d="M825.7,1992.35h13.909v62.004h-13.909v-62.004Z"/>
    <path class="cls-2" d="M878.233,2042.732l7.454-8.443c6.359,6.359,13.414,8.933,21.262,8.933,8.246,0,10.729-2.68,10.729-6.253,0-4.275-3.376-6.263-12.718-8.05-14.701-2.488-23.15-7.252-23.15-19.173,0-11.335,10.432-18.385,24.144-18.385,9.937,0,18.183,2.978,24.941,10.729l-7.454,8.347c-5.763-5.37-10.629-6.954-16.988-6.954-7.752,0-10.931,2.286-10.931,5.965,0,4.563,4.174,5.658,13.213,7.55,13.712,2.776,22.756,7.348,22.756,19.864,0,12.324-9.74,18.587-24.84,18.587-11.229,0-21.459-4.073-28.418-12.718Z"/>
    <path class="cls-2" d="M988.083,2005.27h-20.763v-12.92h55.54v12.92h-20.964v49.085h-13.813v-49.085Z"/>
    <path class="cls-2" d="M1072.8,1992.35h15.897l24.043,62.004h-14.308l-5.365-14.802h-25.239l-5.264,14.802h-13.914l24.149-62.004ZM1089.292,2027.93l-8.847-23.851-8.842,23.851h17.689Z"/>
    <path class="cls-2" d="M1145.884,2023.357c0-16.099,9.831-31.996,31.098-31.996,9.932,0,18.981,3.977,23.947,13.313l-9.442,7.252c-3.083-4.87-7.646-7.848-14.408-7.848-11.623,0-17.184,8.741-17.184,19.279,0,10.931,6.157,19.375,16.887,19.375,6.954,0,12.026-3.285,15.206-8.146l9.337,7.147c-4.87,9.442-14.005,13.717-24.542,13.717-19.567,0-30.897-13.016-30.897-32.092Z"/>
    <path class="cls-2" d="M1240.927,1992.35h13.909v24.052h28.413v-24.052h13.909v62.004h-13.909v-25.042h-28.413v25.042h-13.909v-62.004Z"/>
    <path class="cls-2" d="M1342.324,1992.35h13.909v62.004h-13.909v-62.004Z"/>
    <path class="cls-2" d="M1397.643,2023.252c0-17.876,12.814-31.891,31.295-31.891,19.173,0,31.199,13.611,31.199,31.891,0,18.183-12.622,32.198-31.199,32.198-19.375,0-31.295-13.813-31.295-32.198ZM1446.132,2023.357c0-11.728-6.858-19.279-17.098-19.279s-17.386,7.55-17.386,19.279,6.954,19.375,17.194,19.375,17.29-7.656,17.29-19.375Z"/>
    <path class="cls-2" d="M1553.465,1992.35h13.909v62.004h-13.909v-62.004Z"/>
    <path class="cls-2" d="M1612.453,1992.35h13.707l29.115,41.141v-41.141h13.313v62.004h-13.717l-29.211-40.834v40.834h-13.208v-62.004Z"/>
    <path class="cls-2" d="M1713.754,1992.35h24.235c20.671,0,32.39,12.622,32.39,30.901,0,18.183-12.41,31.103-32.39,31.103h-24.235v-62.004ZM1737.893,2041.541c11.623,0,18.481-6.561,18.481-18.289,0-11.623-6.657-18.078-18.385-18.078h-10.432v36.367h10.336Z"/>
    <path class="cls-2" d="M1810.781,2023.953v-31.603h13.909v31.9c0,12.122,4.073,18.481,14.005,18.481s14.216-5.965,14.216-18.481v-31.9h13.803v31.603c0,19.077-9.538,31.497-27.914,31.497-19.279,0-28.02-12.122-28.02-31.497Z"/>
    <path class="cls-2" d="M1904.321,2042.732l7.454-8.443c6.359,6.359,13.409,8.933,21.267,8.933,8.242,0,10.729-2.68,10.729-6.253,0-4.275-3.381-6.263-12.718-8.05-14.706-2.488-23.15-7.252-23.15-19.173,0-11.335,10.432-18.385,24.139-18.385,9.932,0,18.183,2.978,24.936,10.729l-7.444,8.347c-5.763-5.37-10.633-6.954-16.992-6.954-7.752,0-10.931,2.286-10.931,5.965,0,4.563,4.169,5.658,13.217,7.55,13.707,2.776,22.746,7.348,22.746,19.864,0,12.324-9.731,18.587-24.84,18.587-11.219,0-21.459-4.073-28.413-12.718Z"/>
    <path class="cls-2" d="M2014.171,2005.27h-20.767v-12.92h55.54v12.92h-20.959v49.085h-13.813v-49.085Z"/>
    <path class="cls-2" d="M2088.854,1992.35h24.437c15.6,0,24.744,8.847,24.744,20.767,0,8.347-4.371,14.61-11.133,18.183l14.61,23.054h-15.801l-11.623-19.97h-3.679c-2.68-.096-5.658-.394-8.347-.893v20.863h-13.208v-62.004ZM2124.021,2013.319c0-6.061-4.371-9.442-11.623-9.442h-10.336v18.183c3.583.701,6.657.797,10.336.797,7.348,0,11.623-3.573,11.623-9.538Z"/>
    <path class="cls-2" d="M2193.037,2032.098l-22.554-39.748h15.503l14.303,26.233,13.909-26.233h15.407l-22.66,39.652v22.352h-13.909v-22.256Z"/>
  </g>
</svg>